<svg width="173" height="62" viewBox="0 0 173 62" fill="none" xmlns="http://www.w3.org/2000/svg">
<path d="M78.4583 43.444C76.3362 43.444 74.514 43.0676 72.9922 42.3147C71.4703 41.5619 70.227 40.5832 69.2622 39.3786C68.3193 38.1741 67.6225 36.862 67.1724 35.4423C66.7224 34.0227 66.4971 32.6568 66.4971 31.3447V30.6349C66.4971 29.1722 66.7224 27.731 67.1724 26.3114C67.6439 24.8917 68.362 23.6012 69.3264 22.4396C70.2912 21.2781 71.5131 20.3532 72.9922 19.6648C74.4926 18.955 76.2611 18.6001 78.2972 18.6001C80.4193 18.6001 82.2629 18.9873 83.828 19.7616C85.414 20.5145 86.6787 21.59 87.6216 22.9881C88.565 24.3648 89.133 25.978 89.3259 27.8278H84.7281C84.5566 26.7523 84.1706 25.8489 83.5704 25.1176C82.992 24.3648 82.2524 23.8055 81.3518 23.4398C80.4516 23.0527 79.4336 22.8591 78.2972 22.8591C77.1399 22.8591 76.1109 23.0634 75.2108 23.4721C74.3106 23.8593 73.5601 24.4185 72.9599 25.1499C72.3596 25.8812 71.899 26.7416 71.5773 27.731C71.2774 28.7205 71.1272 29.8175 71.1272 31.022C71.1272 32.1836 71.2774 33.2591 71.5773 34.2485C71.899 35.238 72.3705 36.1091 72.9922 36.862C73.6138 37.5933 74.3748 38.1633 75.2749 38.572C76.1965 38.9807 77.2578 39.1851 78.4583 39.1851C80.2159 39.1851 81.6949 38.7548 82.8955 37.8945C84.1169 37.0125 84.8565 35.7865 85.1141 34.2163H89.7119C89.4975 35.894 88.9296 37.432 88.0075 38.8301C87.086 40.2283 85.8213 41.3468 84.2134 42.1857C82.606 43.0246 80.6874 43.444 78.4583 43.444Z" fill="white"/>
<path d="M91.8284 42.8309V19.2776H96.2978V42.8309H91.8284ZM89.6421 22.6331V19.2776H96.2978V22.6331H89.6421Z" fill="white"/>
<path d="M108.184 43.4438C106.641 43.4438 105.28 43.1965 104.101 42.7017C102.922 42.207 101.925 41.5402 101.111 40.7013C100.296 39.841 99.6747 38.873 99.246 37.7975C98.8387 36.722 98.6348 35.6035 98.6348 34.442V33.7644C98.6348 32.5599 98.8491 31.4198 99.2778 30.3443C99.7279 29.2474 100.36 28.2794 101.175 27.4405C102.011 26.5801 103.019 25.9133 104.197 25.4401C105.377 24.9454 106.705 24.698 108.184 24.698C109.664 24.698 110.992 24.9454 112.172 25.4401C113.35 25.9133 114.347 26.5801 115.161 27.4405C115.997 28.2794 116.63 29.2474 117.059 30.3443C117.487 31.4198 117.702 32.5599 117.702 33.7644V34.442C117.702 35.6035 117.487 36.722 117.059 37.7975C116.651 38.873 116.041 39.841 115.226 40.7013C114.412 41.5402 113.415 42.207 112.236 42.7017C111.057 43.1965 109.706 43.4438 108.184 43.4438ZM108.184 39.6043C109.278 39.6043 110.199 39.3677 110.95 38.8945C111.7 38.3998 112.268 37.7438 112.654 36.9264C113.039 36.0875 113.232 35.141 113.232 34.0871C113.232 33.0116 113.029 32.0651 112.622 31.2478C112.236 30.4089 111.657 29.7528 110.885 29.2796C110.135 28.7849 109.235 28.5375 108.184 28.5375C107.134 28.5375 106.223 28.7849 105.452 29.2796C104.701 29.7528 104.122 30.4089 103.715 31.2478C103.308 32.0651 103.104 33.0116 103.104 34.0871C103.104 35.141 103.297 36.0875 103.683 36.9264C104.09 37.7438 104.669 38.3998 105.419 38.8945C106.169 39.3677 107.091 39.6043 108.184 39.6043Z" fill="white"/>
<path d="M125.956 43.3793C123.941 43.3793 122.376 42.7125 121.262 41.3789C120.169 40.0453 119.621 38.0664 119.621 35.4422V25.2788H124.091V35.8294C124.091 36.9049 124.391 37.7653 124.991 38.4106C125.591 39.0344 126.406 39.3462 127.435 39.3462C128.464 39.3462 129.3 39.0129 129.943 38.346C130.607 37.6792 130.94 36.7758 130.94 35.6358V25.2788H135.409V42.8308H131.872V35.3777H132.226C132.226 37.1415 132.001 38.6149 131.55 39.798C131.1 40.981 130.425 41.8736 129.525 42.4759C128.625 43.0782 127.499 43.3793 126.149 43.3793H125.956Z" fill="white"/>
<path d="M146.17 43.4117C144.948 43.4117 143.822 43.1858 142.793 42.7341C141.765 42.2824 140.875 41.6479 140.125 40.8305C139.375 40.0131 138.796 39.0667 138.389 37.9911C137.981 36.8942 137.778 35.7111 137.778 34.442V33.7645C137.778 32.5169 137.971 31.3446 138.356 30.2476C138.764 29.1506 139.321 28.1934 140.028 27.376C140.757 26.5587 141.625 25.9241 142.633 25.4724C143.662 24.9992 144.798 24.7626 146.041 24.7626C147.413 24.7626 148.613 25.0638 149.642 25.666C150.692 26.2468 151.528 27.1287 152.15 28.3118C152.772 29.4948 153.115 30.9789 153.179 32.7643L151.861 31.2155V19.2776H156.33V42.8309H152.793V35.3777H153.565C153.5 37.163 153.136 38.658 152.472 39.8625C151.807 41.0456 150.928 41.9382 149.835 42.5405C148.763 43.1213 147.541 43.4117 146.17 43.4117ZM147.166 39.6367C148.045 39.6367 148.849 39.4431 149.578 39.0559C150.307 38.6472 150.885 38.0664 151.314 37.3136C151.764 36.5392 151.99 35.6358 151.99 34.6034V33.3128C151.99 32.2803 151.764 31.4199 151.314 30.7316C150.864 30.0218 150.275 29.484 149.546 29.1184C148.817 28.7312 148.024 28.5376 147.166 28.5376C146.202 28.5376 145.344 28.7742 144.594 29.2474C143.865 29.6991 143.287 30.3444 142.858 31.1833C142.451 32.0222 142.247 33.0009 142.247 34.1194C142.247 35.2379 142.461 36.2166 142.89 37.0555C143.319 37.8729 143.897 38.5074 144.627 38.9591C145.377 39.4108 146.223 39.6367 147.166 39.6367Z" fill="white"/>
<path d="M49.6586 45.3078C48.1144 45.3078 47.1631 44.5924 45.6087 43.7498C44.0543 42.9073 39.5587 39.5151 39.5587 35.2924C39.5587 32.4278 38.8228 30.1109 37.5696 28.2645C36.3258 26.4323 34.6407 25.1629 32.8877 24.2668C32.0429 23.8351 31.1639 23.482 30.2885 23.1902C29.7782 23.0202 29.4821 22.4704 29.7035 21.9788C31.1068 18.8614 34.232 16.6924 37.8625 16.6924C42.8044 16.6924 46.8108 20.7125 46.8108 25.6717C46.8108 26.7327 46.6275 27.7508 46.2907 28.6956C47.7171 27.731 49.4357 27.1681 51.285 27.1681C56.2269 27.1681 60.233 31.1882 60.233 36.1475C60.233 42.1176 55.0049 45.3078 49.6586 45.3078Z" fill="white"/>
<path d="M16.9832 35.3992C16.9832 40.1323 20.0929 44.076 24.2125 44.9474C24.8484 45.1806 25.5349 45.3077 26.251 45.3077H40.1539C40.6202 45.3077 40.8232 44.682 40.4672 44.3797C38.0375 42.3167 36.2318 39.4093 36.2318 35.2923C36.2318 33.0302 35.6609 31.3826 34.8199 30.144C33.9693 28.8911 32.7731 27.9547 31.3776 27.2412C29.9692 26.5214 28.4401 26.0629 26.9799 25.7378C26.636 25.6942 26.286 25.6716 25.9314 25.6716C20.9893 25.6716 16.9832 30.0268 16.9832 35.3992Z" fill="white"/>
</svg>
