<svg width="62" height="62" viewBox="0 0 62 62" fill="none" xmlns="http://www.w3.org/2000/svg">
<path d="M55.9746 15.267L47.439 24.8697L45.9547 23.5493L53.3159 15.267L45.9547 6.98578L47.439 5.66535L55.9746 15.267ZM38.0063 5.66436L29.4707 15.267L38.0063 24.8697L39.4906 23.5493L32.1294 15.267L39.4906 6.98578L38.0063 5.66436ZM40.7395 26.1066L42.7187 26.2865L44.7058 4.42838L42.7266 4.24855L40.7395 26.1066ZM20.1224 38.7784L27.4836 47.0606L20.1224 55.3428L21.6067 56.6623L30.1423 47.0606L21.6067 37.459L20.1224 38.7784ZM12.174 37.459L3.63838 47.0606L12.174 56.6623L13.6583 55.3428L6.29712 47.0606L13.6583 38.7784L12.174 37.459ZM14.9072 57.8993L16.8864 58.0801L18.8735 36.222L16.8943 36.0412L14.9072 57.8993ZM5.9613 20.2348H3.9742V22.2219H5.9613V20.2348ZM9.9355 20.2348H7.9484V22.2219H9.9355V20.2348ZM13.9097 20.2348H11.9226V22.2219H13.9097V20.2348ZM21.8581 28.1832H19.871V30.1703H21.8581V28.1832ZM17.8839 28.1832H15.8968V30.1703H17.8839V28.1832ZM3.9742 30.1703H13.9097V28.1832H3.9742V30.1703ZM39.742 46.0671H41.7291V38.1187H39.742V46.0671ZM51.6646 46.0671H53.6517V38.1187H51.6646V46.0671ZM35.7678 46.0671H33.7807C32.6848 46.0671 31.7936 45.1759 31.7936 44.08V40.1058C31.7936 39.0099 32.6848 38.1187 33.7807 38.1187H35.7678C36.8637 38.1187 37.7549 39.0099 37.7549 40.1058V44.08C37.7549 45.1759 36.8637 46.0671 35.7678 46.0671ZM33.7807 44.08H35.7698L35.7678 40.1058H33.7807V44.08ZM47.6904 46.0671H45.7033C44.6074 46.0671 43.7162 45.1759 43.7162 44.08V40.1058C43.7162 39.0099 44.6074 38.1187 45.7033 38.1187H47.6904C48.7863 38.1187 49.6775 39.0099 49.6775 40.1058V44.08C49.6775 45.1759 48.7863 46.0671 47.6904 46.0671ZM45.7033 44.08H47.6924L47.6904 40.1058H45.7033V44.08ZM31.7936 56.0026H33.7807V48.0542H31.7936V56.0026ZM41.7291 50.0413V54.0155C41.7291 55.1114 40.8379 56.0026 39.742 56.0026H37.7549C36.659 56.0026 35.7678 55.1114 35.7678 54.0155V50.0413C35.7678 48.9454 36.659 48.0542 37.7549 48.0542H39.742C40.8379 48.0542 41.7291 48.9454 41.7291 50.0413ZM39.742 50.0413H37.7549V54.0155H39.742V50.0413ZM43.7162 56.0026H45.7033V48.0542H43.7162V56.0026ZM53.6517 50.0413V54.0155C53.6517 55.1114 52.7605 56.0026 51.6646 56.0026H49.6775C48.5816 56.0026 47.6904 55.1114 47.6904 54.0155V50.0413C47.6904 48.9454 48.5816 48.0542 49.6775 48.0542H51.6646C52.7605 48.0542 53.6517 48.9454 53.6517 50.0413ZM51.6646 50.0413H49.6775V54.0155H51.6646V50.0413ZM61.6001 5.33152V25.2025C61.6001 27.6009 59.8902 29.6079 57.6259 30.0699V61.9639H0V16.2606H23.8452V5.33152C23.8452 2.5923 26.0737 0.36377 28.8129 0.36377H56.6323C59.3716 0.36377 61.6001 2.5923 61.6001 5.33152ZM1.9871 18.2477V24.209H23.8452V18.2477H1.9871ZM55.6388 59.9768V30.1703H28.8129C26.4145 30.1703 24.4075 28.4604 23.9455 26.1961H1.9871V59.9768H55.6388ZM59.613 5.33152C59.613 3.68819 58.2757 2.35087 56.6323 2.35087H28.8129C27.1696 2.35087 25.8323 3.68819 25.8323 5.33152V25.2025C25.8323 26.8458 27.1696 28.1832 28.8129 28.1832H56.6323C58.2757 28.1832 59.613 26.8458 59.613 25.2025V5.33152ZM56.6323 24.209C56.0839 24.209 55.6388 24.6541 55.6388 25.2025C55.6388 25.751 56.0839 26.1961 56.6323 26.1961C57.1808 26.1961 57.6259 25.751 57.6259 25.2025C57.6259 24.6541 57.1808 24.209 56.6323 24.209ZM56.6323 4.33797C56.0839 4.33797 55.6388 4.78308 55.6388 5.33152C55.6388 5.87996 56.0839 6.32507 56.6323 6.32507C57.1808 6.32507 57.6259 5.87996 57.6259 5.33152C57.6259 4.78308 57.1808 4.33797 56.6323 4.33797ZM28.8129 24.209C28.2645 24.209 27.8194 24.6541 27.8194 25.2025C27.8194 25.751 28.2645 26.1961 28.8129 26.1961C29.3614 26.1961 29.8065 25.751 29.8065 25.2025C29.8065 24.6541 29.3614 24.209 28.8129 24.209ZM28.8129 6.32507C29.3614 6.32507 29.8065 5.87996 29.8065 5.33152C29.8065 4.78308 29.3614 4.33797 28.8129 4.33797C28.2645 4.33797 27.8194 4.78308 27.8194 5.33152C27.8194 5.87996 28.2645 6.32507 28.8129 6.32507Z" fill="#FBAD1C"/>
</svg>
