<svg width="67" height="74" viewBox="0 0 67 74" fill="none" xmlns="http://www.w3.org/2000/svg">
<path d="M66.5 0.5L0.5 73.5H66.5V0.5Z" fill="#F6AD22"/>
<path d="M55.1245 41.9965L45.8881 41.9965C45.6435 42.0008 45.4103 42.1009 45.2388 42.2754C45.0673 42.4499 44.9713 42.6847 44.9713 42.9294C44.9713 43.174 45.0673 43.4089 45.2388 43.5834C45.4103 43.7578 45.6435 43.858 45.8881 43.8623L52.8721 43.8623L41.2698 55.4645C41.0949 55.6395 40.9966 55.8768 40.9966 56.1243C40.9966 56.3717 41.0949 56.609 41.2698 56.784C41.4448 56.959 41.6821 57.0573 41.9296 57.0573C42.177 57.0573 42.4144 56.959 42.5893 56.784L54.1916 45.1817L54.1916 52.1658C54.1894 52.2897 54.212 52.4127 54.2579 52.5278C54.3038 52.6429 54.3722 52.7476 54.459 52.836C54.5459 52.9244 54.6494 52.9945 54.7637 53.0424C54.8779 53.0904 55.0006 53.115 55.1245 53.115C55.2484 53.115 55.371 53.0904 55.4853 53.0424C55.5995 52.9945 55.7031 52.9244 55.7899 52.836C55.8768 52.7476 55.9451 52.6429 55.9911 52.5278C56.037 52.4127 56.0595 52.2897 56.0574 52.1658V42.9294C56.0573 42.682 55.959 42.4447 55.7841 42.2698C55.6091 42.0948 55.3719 41.9965 55.1245 41.9965Z" fill="black"/>
</svg>
