<svg width="79" height="61" viewBox="0 0 79 61" fill="none" xmlns="http://www.w3.org/2000/svg">
<path d="M40.6725 16.2157C40.5336 16.0517 40.277 15.9021 39.9913 15.9021C39.7123 15.9021 39.4511 16.0491 39.31 16.2157C38.8854 16.7165 28.9055 28.5427 28.9055 34.4323C28.9055 36.8246 29.6818 39.1391 31.0989 41.0436C30.6866 41.5524 30.4291 42.1912 30.4291 42.8953V47.0252C30.4291 48.6434 31.736 49.9587 33.3494 49.9797V57.1488C33.3494 58.961 34.8242 60.4357 36.6363 60.4357H43.3468C45.1589 60.4357 46.6331 58.961 46.6331 57.1488V49.9797C48.2465 49.9589 49.554 48.6436 49.554 47.0252V42.8953C49.554 42.1912 49.2964 41.5524 48.8839 41.0436C50.3012 39.1388 51.0776 36.8244 51.0776 34.432C51.0776 28.5427 41.0971 16.7165 40.6725 16.2157ZM39.0977 19.3067V29.8165H37.1669C36.6737 29.8165 36.2734 30.2168 36.2734 30.7101C36.2734 31.2033 36.6737 31.6036 37.1669 31.6036H42.8156C43.3089 31.6036 43.7092 31.2033 43.7092 30.7101C43.7092 30.2168 43.3089 29.8165 42.8156 29.8165H40.8848V19.3062C44.1548 23.4592 49.2904 30.7604 49.2904 34.432C49.2904 36.4732 48.6142 38.4449 47.3863 40.0576C47.1328 39.9866 46.8712 39.9366 46.5952 39.9366H33.3873C33.1119 39.9366 32.85 39.9866 32.5967 40.0576C31.3686 38.4452 30.6926 36.4732 30.6926 34.4323C30.6928 30.7628 35.8283 23.4606 39.0977 19.3067ZM44.846 57.1486C44.846 57.9759 44.1736 58.6483 43.3468 58.6483H36.6363C35.809 58.6483 35.1365 57.9759 35.1365 57.1486V49.9832H44.8458V57.1486H44.846ZM47.7669 47.0252C47.7669 47.6709 47.2415 48.1964 46.5952 48.1964C43.8977 48.1964 38.0598 48.1964 33.3873 48.1964C32.7416 48.1964 32.2162 47.6709 32.2162 47.0252V42.8953C32.2162 42.2491 32.7416 41.7237 33.3873 41.7237H46.5952C47.2415 41.7237 47.7669 42.2491 47.7669 42.8953V47.0252Z" fill="#FBAD1C"/>
<path d="M15.3477 6.69264C15.3477 3.20277 12.5088 0.363892 9.01919 0.363892C5.5298 0.363892 2.69092 3.20277 2.69092 6.69264C2.69092 10.182 5.5298 13.0209 9.01919 13.0209C12.5088 13.0207 15.3477 10.1818 15.3477 6.69264ZM4.47803 6.69264C4.47803 4.18831 6.51533 2.151 9.01919 2.151C11.5233 2.151 13.5606 4.18831 13.5606 6.69264C13.5606 9.1965 11.5233 11.2338 9.01919 11.2338C6.51533 11.2336 4.47803 9.1965 4.47803 6.69264Z" fill="#FBAD1C"/>
<path d="M77.8847 6.69264C77.8847 3.20277 75.0459 0.363892 71.5565 0.363892C68.0666 0.363892 65.2277 3.20277 65.2277 6.69264C65.2277 10.182 68.0666 13.0209 71.5565 13.0209C75.0459 13.0207 77.8847 10.1818 77.8847 6.69264ZM67.0148 6.69264C67.0148 4.18831 69.0521 2.151 71.5565 2.151C74.0603 2.151 76.0976 4.18831 76.0976 6.69264C76.0976 9.1965 74.0603 11.2338 71.5565 11.2338C69.0521 11.2336 67.0148 9.1965 67.0148 6.69264Z" fill="#FBAD1C"/>
<path d="M8.64378 30.6575C8.71789 30.6768 8.79271 30.6854 8.8661 30.6854C9.2645 30.6854 9.62764 30.4174 9.73106 30.0135C12.6767 18.514 22.4007 9.75003 34.0853 7.94886C34.6698 10.8383 37.2282 13.0209 40.288 13.0209C43.3475 13.0209 45.906 10.838 46.4902 7.94839C58.1486 9.7436 67.8614 18.478 70.8173 29.9382C70.921 30.3406 71.2839 30.6085 71.6818 30.6085C71.7557 30.6085 71.8307 30.5992 71.9058 30.5799C72.3833 30.4564 72.6707 29.9696 72.5475 29.4914C69.9009 19.2298 62.1417 11.0317 52.3474 7.58477H62.5501C63.0434 7.58477 63.4437 7.18446 63.4437 6.69122C63.4437 6.19797 63.0434 5.79766 62.5501 5.79766H46.5453C46.108 2.73146 43.4726 0.364136 40.288 0.364136C37.1029 0.364136 34.4673 2.73146 34.03 5.79766H18.0273C17.5336 5.79766 17.1337 6.19797 17.1337 6.69122C17.1337 7.18446 17.5336 7.58477 18.0273 7.58477H28.2312C18.4109 11.0403 10.6384 19.2689 7.99971 29.5705C7.87747 30.0483 8.16555 30.5346 8.64378 30.6575ZM40.288 2.15101C42.7888 2.15101 44.8237 4.18354 44.8287 6.68383C44.8287 6.68621 44.828 6.6886 44.828 6.69098C44.828 6.69384 44.8287 6.69646 44.8289 6.69932C44.8254 9.20008 42.7897 11.2338 40.2882 11.2338C37.7839 11.2338 35.7466 9.1965 35.7466 6.69265C35.7464 4.18831 37.7834 2.15101 40.288 2.15101Z" fill="#FBAD1C"/>
<path d="M7.30068 44.9937C10.7903 44.9937 13.6292 42.1548 13.6292 38.6654C13.6292 35.176 10.7903 32.3372 7.30068 32.3372C3.81129 32.3372 0.972412 35.176 0.972412 38.6654C0.972412 42.1548 3.81129 44.9937 7.30068 44.9937ZM7.30068 34.1243C9.80478 34.1243 11.8421 36.1616 11.8421 38.6654C11.8421 41.1693 9.80478 43.2066 7.30068 43.2066C4.79683 43.2066 2.75952 41.1693 2.75952 38.6654C2.75952 36.1616 4.79683 34.1243 7.30068 34.1243Z" fill="#FBAD1C"/>
<path d="M79.0083 38.6654C79.0083 35.176 76.1694 32.3372 72.68 32.3372C69.1906 32.3372 66.3517 35.176 66.3517 38.6654C66.3517 42.1548 69.1906 44.9937 72.68 44.9937C76.1694 44.9937 79.0083 42.1546 79.0083 38.6654ZM72.68 43.2066C70.1762 43.2066 68.1389 41.1693 68.1389 38.6654C68.1389 36.1616 70.1762 34.1243 72.68 34.1243C75.1839 34.1243 77.2212 36.1616 77.2212 38.6654C77.2212 41.1693 75.1839 43.2066 72.68 43.2066Z" fill="#FBAD1C"/>
</svg>
