<svg width="138" height="361" viewBox="0 0 138 361" fill="none" xmlns="http://www.w3.org/2000/svg">
<path d="M-49.7567 112.749L-107.939 15.3639L-153.368 44.2629L-95.1307 141.777L-92.5457 146.106L-97.5497 145.495L-212.421 131.477L-219.999 183.66L-105.24 197.665L-100.095 198.293L-103.823 201.893L-186.653 281.896L-149.221 320.651L-66.3907 240.648L-62.6627 237.048L-62.2137 242.211L-52.2097 357.395L0.212341 351.627L-9.80167 236.33L-10.2377 231.307L-6.00166 234.041L89.4243 295.636L119.883 251.238L24.5763 189.71L20.3473 186.98L25.0943 185.306L134.884 146.588L119.359 95.7385L9.75633 134.404L4.78134 136.159L6.61934 131.214L47.4913 21.2954L-2.83167 4L-45.3377 112.384L-47.1757 117.071L-49.7567 112.749Z" stroke="url(#paint0_linear_1_335)" stroke-width="4.9396"/>
<defs>
<linearGradient id="paint0_linear_1_335" x1="85.8313" y1="56.1672" x2="-169.714" y2="302.99" gradientUnits="userSpaceOnUse">
<stop stop-color="#FFDF99"/>
<stop offset="1" stop-color="#111111" stop-opacity="0"/>
</linearGradient>
</defs>
</svg>
