<svg width="207" height="75" viewBox="0 0 207 75" fill="none" xmlns="http://www.w3.org/2000/svg">
<path d="M74.6251 48.9846C72.3022 48.9846 70.2487 48.53 68.4647 47.6209C66.6806 46.6907 65.3014 45.3783 64.3265 43.6836C63.3516 41.9888 62.8642 39.9944 62.8642 37.7003C62.8642 35.4062 63.3516 33.4118 64.3265 31.717C65.3014 30.0016 66.6806 28.6892 68.4647 27.7799C70.2487 26.8498 72.3022 26.3848 74.6251 26.3848C76.2017 26.3848 77.5915 26.5501 78.7945 26.8808C80.0186 27.1908 81.1385 27.6868 82.1547 28.3689V32.8641C81.2422 32.12 80.1948 31.5827 79.0125 31.252C77.8508 30.9006 76.5234 30.725 75.0299 30.725C73.6401 30.725 72.3848 31.0143 71.2649 31.593C70.1657 32.151 69.2945 32.9571 68.6515 34.0111C68.0084 35.0651 67.6867 36.2949 67.6867 37.7003C67.6867 39.1264 67.9772 40.3767 68.5578 41.4514C69.1596 42.5055 69.9995 43.3219 71.0781 43.9006C72.1567 44.4792 73.4015 44.7686 74.8119 44.7686C76.098 44.7686 77.2179 44.5413 78.1721 44.0866V39.9014H74.6563V36.4292H82.7458V46.8768C80.6924 48.2822 77.9858 48.9846 74.6251 48.9846Z" fill="white"/>
<path d="M103.601 48.9846C100.739 48.9846 98.4879 48.3027 96.8494 46.9385C95.2108 45.554 94.3915 43.6215 94.3915 41.1414C94.3915 38.682 95.1176 36.7392 96.5694 35.3132C98.0423 33.8871 100.137 33.1741 102.855 33.1741C104.638 33.1741 106.152 33.5048 107.397 34.1661C108.641 34.8275 109.586 35.7472 110.229 36.9252C110.872 38.0826 111.193 39.395 111.193 40.8624V42.7535H98.8721C99.204 44.6549 100.988 45.6056 104.223 45.6056C105.178 45.6056 106.163 45.523 107.179 45.3576C108.196 45.1923 109.078 44.9649 109.824 44.6755V47.9616C109.098 48.2716 108.165 48.5199 107.024 48.7056C105.883 48.8917 104.742 48.9846 103.601 48.9846ZM106.744 39.7154C106.682 38.7233 106.308 37.9586 105.624 37.4213C104.939 36.8632 103.995 36.5842 102.792 36.5842C101.61 36.5842 100.676 36.8632 99.992 37.4213C99.3077 37.9793 98.9341 38.744 98.8721 39.7154H106.744Z" fill="white"/>
<path d="M120.823 48.9846C117.961 48.9846 115.71 48.3027 114.072 46.9385C112.433 45.554 111.613 43.6215 111.613 41.1414C111.613 38.682 112.34 36.7392 113.792 35.3132C115.264 33.8871 117.359 33.1741 120.077 33.1741C121.861 33.1741 123.375 33.5048 124.62 34.1661C125.864 34.8275 126.807 35.7472 127.451 36.9252C128.094 38.0826 128.415 39.395 128.415 40.8624V42.7535H116.094C116.426 44.6549 118.21 45.6056 121.446 45.6056C122.4 45.6056 123.385 45.523 124.402 45.3576C125.418 45.1923 126.299 44.9649 127.046 44.6755V47.9616C126.32 48.2716 125.387 48.5199 124.246 48.7056C123.105 48.8917 121.964 48.9846 120.823 48.9846ZM123.966 39.7154C123.904 38.7233 123.53 37.9586 122.846 37.4213C122.161 36.8632 121.218 36.5842 120.015 36.5842C118.832 36.5842 117.899 36.8632 117.214 37.4213C116.53 37.9793 116.156 38.744 116.094 39.7154H123.966Z" fill="white"/>
<path d="M129.458 33.6391H134.001V35.4682C134.685 34.7035 135.494 34.1351 136.428 33.7631C137.382 33.3704 138.377 33.1741 139.415 33.1741C141.448 33.1741 142.962 33.7218 143.957 34.8171C144.973 35.8919 145.482 37.3489 145.482 39.1883V48.5199H140.783V39.7154C140.783 37.7932 139.892 36.8322 138.108 36.8322C137.319 36.8322 136.583 37.0286 135.898 37.4213C135.214 37.7932 134.634 38.3513 134.156 39.0953V48.5199H129.458V33.6391Z" fill="white"/>
<path d="M149.627 31.345C148.901 31.345 148.29 31.1073 147.792 30.6319C147.294 30.1566 147.045 29.5572 147.045 28.8338C147.045 28.1312 147.294 27.5421 147.792 27.0668C148.29 26.5708 148.901 26.3228 149.627 26.3228C150.353 26.3228 150.965 26.5708 151.463 27.0668C151.961 27.5421 152.21 28.1312 152.21 28.8338C152.21 29.5572 151.961 30.1566 151.463 30.6319C150.965 31.1073 150.353 31.345 149.627 31.345ZM147.262 33.6391H151.992V48.5199H147.262V33.6391Z" fill="white"/>
<path d="M160.005 48.9846C158.885 48.9846 157.682 48.8606 156.396 48.6128C155.13 48.3855 154.135 48.0548 153.409 47.6209V43.9625C154.238 44.4586 155.234 44.8616 156.396 45.1716C157.557 45.4816 158.636 45.6366 159.631 45.6366C160.482 45.6366 161.104 45.5643 161.498 45.4196C161.892 45.2749 162.089 45.0062 162.089 44.6136C162.089 44.3036 161.975 44.0556 161.747 43.8695C161.519 43.6629 161.166 43.4872 160.689 43.3425C160.233 43.1772 159.465 42.9395 158.387 42.6295C157.122 42.2575 156.126 41.8855 155.4 41.5134C154.695 41.1207 154.155 40.6351 153.782 40.0564C153.429 39.4777 153.253 38.7336 153.253 37.8243C153.253 36.2742 153.865 35.1168 155.089 34.3521C156.333 33.5667 158.014 33.1741 160.129 33.1741C161.166 33.1741 162.235 33.2877 163.334 33.5151C164.454 33.7218 165.315 34.0008 165.917 34.3521V37.9173C165.315 37.5246 164.527 37.2042 163.552 36.9562C162.598 36.7082 161.664 36.5842 160.751 36.5842C159.901 36.5842 159.237 36.6669 158.76 36.8322C158.304 36.9976 158.076 37.3076 158.076 37.7623C158.076 38.1549 158.294 38.4546 158.729 38.6613C159.185 38.868 160.026 39.1263 161.249 39.4363L161.872 39.5913C163.178 39.9427 164.195 40.3354 164.921 40.7694C165.647 41.1827 166.155 41.6891 166.445 42.2884C166.757 42.8671 166.912 43.6009 166.912 44.4896C166.912 45.8538 166.321 46.9491 165.139 47.7759C163.956 48.5817 162.245 48.9846 160.005 48.9846Z" fill="white"/>
<path d="M167.998 25.6099H172.696V35.3443C173.402 34.6209 174.2 34.0836 175.092 33.7322C175.984 33.3602 176.938 33.1742 177.955 33.1742C179.988 33.1742 181.502 33.7219 182.497 34.8173C183.514 35.892 184.022 37.3491 184.022 39.1885V48.5201H179.324V39.7155C179.324 37.7934 178.432 36.8324 176.648 36.8324C175.86 36.8324 175.123 37.0287 174.439 37.4214C173.754 37.7934 173.174 38.3514 172.696 39.0955V48.5201H167.998V25.6099Z" fill="white"/>
<path fill-rule="evenodd" clip-rule="evenodd" d="M46.8187 29.9963C46.8187 33.9342 43.615 37.1266 39.6627 37.1266C35.7104 37.1266 32.5065 33.9342 32.5065 29.9963C32.5065 26.0583 35.7104 22.866 39.6627 22.866C43.615 22.866 46.8187 26.0583 46.8187 29.9963ZM23.0167 36.6084C30.8133 36.0848 37.6082 41.9009 38.2411 49.6858C38.3067 50.4925 38.3036 51.2887 38.2366 52.0693C30.44 52.593 23.6451 46.7768 23.0122 38.992C22.9466 38.1853 22.9498 37.3888 23.0167 36.6084ZM43.2811 51.7968C51.0941 51.1661 56.9314 44.3958 56.4059 36.6275C55.6224 36.5607 54.8234 36.5576 54.0137 36.623C46.2005 37.2536 40.3633 44.0239 40.8889 51.7922C41.6722 51.859 42.4715 51.8622 43.2811 51.7968Z" fill="white"/>
</svg>
