<svg width="176" height="72" viewBox="0 0 176 72" fill="none" xmlns="http://www.w3.org/2000/svg">
<path d="M81.6667 44.7847C80.4658 44.7847 79.3486 44.579 78.3151 44.1675C77.2967 43.7412 76.4 43.147 75.6245 42.3854C74.8646 41.6235 74.2716 40.7401 73.8463 39.7348C73.4205 38.7142 73.2076 37.6172 73.2076 36.4442C73.2076 35.2713 73.4205 34.1821 73.8463 33.1767C74.2716 32.1561 74.8646 31.2725 75.6245 30.5261C76.3848 29.7796 77.2739 29.2007 78.2923 28.7895C79.3258 28.3629 80.443 28.1497 81.6439 28.1497C82.9207 28.1497 84.0535 28.3553 85.0415 28.7666C85.8891 29.1143 86.6448 29.5707 87.3085 30.1361C87.5089 30.3068 87.5119 30.611 87.3268 30.7983L85.6139 32.5309C85.4258 32.7212 85.119 32.7145 84.9156 32.5405C84.5663 32.2417 84.1675 31.9967 83.719 31.8057C83.126 31.5467 82.4345 31.4172 81.6439 31.4172C80.9448 31.4172 80.299 31.5391 79.706 31.7828C79.1282 32.0113 78.6268 32.3465 78.201 32.7882C77.7909 33.23 77.464 33.7632 77.2207 34.3878C76.9926 35.0123 76.8786 35.6978 76.8786 36.4442C76.8786 37.2059 76.9926 37.8991 77.2207 38.5237C77.464 39.1481 77.7909 39.6814 78.201 40.123C78.6268 40.5649 79.1282 40.9077 79.706 41.1515C80.299 41.395 80.9448 41.5169 81.6439 41.5169C82.4649 41.5169 83.1792 41.3873 83.7874 41.1287C84.2417 40.9351 84.6495 40.686 85.0107 40.382C85.2121 40.2121 85.5132 40.2075 85.6991 40.3942L87.4306 42.129C87.6199 42.3188 87.6142 42.6292 87.4078 42.7995C86.7231 43.3641 85.9572 43.8201 85.1099 44.1675C84.1215 44.579 82.9739 44.7847 81.6667 44.7847Z" fill="white"/>
<path d="M68.9597 44.5334C68.6997 44.5334 68.4888 44.3219 68.4888 44.0614V28.873C68.4888 28.6124 68.6997 28.4011 68.9597 28.4011H71.5975C71.8575 28.4011 72.0685 28.6124 72.0685 28.873V44.0614C72.0685 44.3219 71.8575 44.5334 71.5975 44.5334H68.9597Z" fill="white"/>
<path d="M88.6086 44.0614C88.6086 44.3219 88.8196 44.5334 89.0796 44.5334H91.7173C91.7341 44.5334 91.7504 44.5326 91.7668 44.5307C91.7827 44.5326 91.7991 44.5334 91.8158 44.5334H99.6978C99.9578 44.5334 100.169 44.3219 100.169 44.0614V41.8975C100.169 41.637 99.9578 41.4255 99.6978 41.4255H92.1883V37.7925H98.8999C99.1599 37.7925 99.3705 37.5812 99.3705 37.3206V35.2711C99.3705 35.0105 99.1599 34.7991 98.8999 34.7991H92.1883V31.4859H99.5837C99.8438 31.4859 100.055 31.2746 100.055 31.0139V28.873C100.055 28.6124 99.8438 28.4011 99.5837 28.4011H91.8158C91.7991 28.4011 91.7827 28.402 91.7668 28.4036C91.7504 28.402 91.7341 28.4011 91.7173 28.4011H89.0796C88.8196 28.4011 88.6086 28.6124 88.6086 28.873V44.0614Z" fill="white"/>
<path fill-rule="evenodd" clip-rule="evenodd" d="M104.703 44.5334C104.679 44.5334 104.655 44.5314 104.631 44.528C104.608 44.5314 104.584 44.5334 104.56 44.5334H101.967C101.707 44.5334 101.496 44.3219 101.496 44.0614V28.873C101.496 28.6124 101.707 28.4011 101.967 28.4011H104.56C104.584 28.4011 104.608 28.403 104.631 28.4066C104.655 28.403 104.679 28.4011 104.703 28.4011H108.405C109.438 28.4011 110.313 28.5915 111.027 28.9724C111.757 29.3532 112.312 29.8635 112.692 30.5033C113.071 31.1431 113.261 31.8515 113.261 32.6284C113.261 33.6186 112.943 34.4564 112.304 35.1419C112.029 35.4372 111.698 35.693 111.31 35.9091C111.853 36.1762 112.314 36.5146 112.692 36.9242C113.436 37.7164 113.809 38.6914 113.809 39.8492C113.809 40.7326 113.588 41.5322 113.147 42.2484C112.722 42.949 112.099 43.5052 111.278 43.9162C110.472 44.3276 109.499 44.5334 108.359 44.5334H104.703ZM105.031 41.7455H108.018C108.717 41.7455 109.264 41.5398 109.659 41.1288C110.054 40.7174 110.252 40.2145 110.252 39.6206C110.252 39.2092 110.161 38.8438 109.978 38.5238C109.796 38.2038 109.537 37.9525 109.203 37.7697C108.884 37.5869 108.489 37.4955 108.018 37.4955H105.031V41.7455ZM107.721 34.7763H105.031V31.1888H107.721C108.314 31.1888 108.793 31.3412 109.158 31.6458C109.522 31.9353 109.705 32.377 109.705 32.9711C109.705 33.5805 109.522 34.0375 109.158 34.3422C108.793 34.6316 108.314 34.7763 107.721 34.7763Z" fill="white"/>
<path d="M114.963 44.0614C114.963 44.3219 115.174 44.5334 115.434 44.5334H118.072C118.088 44.5334 118.105 44.5326 118.121 44.5307C118.137 44.5326 118.154 44.5334 118.17 44.5334H126.052C126.313 44.5334 126.523 44.3219 126.523 44.0614V41.8975C126.523 41.637 126.313 41.4255 126.052 41.4255H118.543V37.7925H125.254C125.514 37.7925 125.725 37.5812 125.725 37.3206V35.2711C125.725 35.0105 125.514 34.7991 125.254 34.7991H118.543V31.4859H125.938C126.199 31.4859 126.409 31.2746 126.409 31.0139V28.873C126.409 28.6124 126.199 28.4011 125.938 28.4011H118.17C118.154 28.4011 118.137 28.402 118.121 28.4036C118.105 28.402 118.088 28.4011 118.072 28.4011H115.434C115.174 28.4011 114.963 28.6124 114.963 28.873V44.0614Z" fill="white"/>
<path fill-rule="evenodd" clip-rule="evenodd" d="M131.431 44.0614V37.8839H131.901C131.904 37.9722 131.933 38.0612 131.99 38.1406L136.465 44.3379C136.554 44.4606 136.696 44.5334 136.847 44.5334H139.895C140.285 44.5334 140.506 44.0854 140.269 43.7749L135.691 37.7678C136.238 37.6701 136.741 37.5108 137.199 37.2898C138.02 36.8938 138.659 36.3454 139.114 35.6446C139.571 34.9286 139.799 34.0984 139.799 33.154C139.799 32.2247 139.571 31.4021 139.114 30.6861C138.659 29.9702 138.028 29.4142 137.222 29.0181C136.416 28.6068 135.482 28.4011 134.418 28.4011H131.058C131.041 28.4011 131.025 28.402 131.009 28.4036C130.993 28.402 130.976 28.4011 130.96 28.4011H128.322C128.062 28.4011 127.851 28.6124 127.851 28.873V44.0614C127.851 44.3219 128.062 44.5334 128.322 44.5334H130.96C131.22 44.5334 131.431 44.3219 131.431 44.0614ZM133.984 35.2333H131.431V31.1888H134.007C134.722 31.1888 135.269 31.3793 135.649 31.7601C136.029 32.1409 136.219 32.6208 136.219 33.1996C136.219 33.8242 136.021 34.3193 135.626 34.6849C135.246 35.0505 134.699 35.2333 133.984 35.2333Z" fill="white"/>
<path d="M145.493 44.1447C146.527 44.5713 147.629 44.7847 148.799 44.7847C150.395 44.7847 151.801 44.4494 153.017 43.7793C154.249 43.1089 155.206 42.1188 155.89 40.8087C156.589 39.4833 156.939 37.8534 156.939 35.9187V35.8651C156.939 35.6044 156.728 35.3932 156.468 35.3932H148.951C148.691 35.3932 148.48 35.6044 148.48 35.8651V37.9677C148.48 38.2254 148.686 38.4353 148.943 38.4395L153.104 38.5058C153.016 38.8414 152.895 39.1523 152.744 39.4376C152.394 40.1077 151.885 40.6258 151.216 40.9915C150.562 41.342 149.764 41.5169 148.822 41.5169C147.895 41.5169 147.074 41.3039 146.359 40.8772C145.645 40.4506 145.083 39.8567 144.672 39.0948C144.262 38.3332 144.057 37.4497 144.057 36.4442C144.057 35.4388 144.262 34.5629 144.672 33.8165C145.098 33.0548 145.683 32.4683 146.428 32.057C147.172 31.6305 148.016 31.4172 148.959 31.4172C149.84 31.4172 150.63 31.5848 151.33 31.9199C151.879 32.183 152.371 32.5494 152.808 33.019C153.001 33.2272 153.332 33.25 153.532 33.0488L155.287 31.2899C155.46 31.1164 155.473 30.8378 155.305 30.6601C154.61 29.9289 153.764 29.3434 152.766 28.9037C151.642 28.401 150.388 28.1497 149.004 28.1497C147.803 28.1497 146.679 28.3629 145.63 28.7895C144.581 29.2007 143.661 29.7873 142.871 30.5489C142.095 31.2953 141.488 32.1713 141.047 33.1767C140.606 34.1821 140.386 35.2713 140.386 36.4442C140.386 37.6172 140.598 38.7142 141.024 39.7348C141.465 40.7401 142.065 41.6235 142.825 42.3854C143.585 43.1317 144.474 43.7184 145.493 44.1447Z" fill="white"/>
<path d="M21.3908 22.6548C19.374 25.2249 19.374 28.9866 19.374 36.51C19.374 44.0335 19.374 47.795 21.3908 50.3653C21.8536 50.955 22.3849 51.4872 22.9734 51.9512C23.1987 52.1287 23.4331 52.2907 23.6784 52.4385L33.6057 30.4736C34.0373 29.5187 35.1303 29.0585 36.1128 29.418L42.4214 31.7261C43.0174 31.9441 43.4747 32.4326 43.6537 33.0425L49.4313 52.7063C49.8586 52.4926 50.2535 52.243 50.6238 51.9512C51.2126 51.4872 51.7437 50.955 52.2067 50.3653C54.2232 47.795 54.2232 44.0335 54.2232 36.51C54.2232 28.9866 54.2232 25.2249 52.2067 22.6548C51.7437 22.065 51.2126 21.5326 50.6238 21.0688C48.0594 19.0476 44.3057 19.0476 36.7987 19.0476C29.2915 19.0476 25.5379 19.0476 22.9734 21.0688C22.3849 21.5326 21.8536 22.065 21.3908 22.6548Z" fill="white"/>
</svg>
