<svg width="24" height="24" viewBox="0 0 24 24" fill="none" xmlns="http://www.w3.org/2000/svg">
<g clip-path="url(#clip0_1_633)">
<path d="M15.7114 2.88672C16.9875 2.88672 18.2113 3.39365 19.1137 4.29599C20.016 5.19832 20.5229 6.42216 20.5229 7.69826V15.3967C20.5229 16.6728 20.016 17.8967 19.1137 18.799C18.2113 19.7013 16.9875 20.2083 15.7114 20.2083H8.01292C6.73682 20.2083 5.51299 19.7013 4.61065 18.799C3.70831 17.8967 3.20139 16.6728 3.20139 15.3967V7.69826C3.20139 6.42216 3.70831 5.19832 4.61065 4.29599C5.51299 3.39365 6.73682 2.88672 8.01292 2.88672H15.7114ZM11.8622 7.69826C10.8413 7.69826 9.86221 8.1038 9.14034 8.82567C8.41847 9.54754 8.01292 10.5266 8.01292 11.5475C8.01292 12.5684 8.41847 13.5474 9.14034 14.2693C9.86221 14.9912 10.8413 15.3967 11.8622 15.3967C12.883 15.3967 13.8621 14.9912 14.584 14.2693C15.3058 13.5474 15.7114 12.5684 15.7114 11.5475C15.7114 10.5266 15.3058 9.54754 14.584 8.82567C13.8621 8.1038 12.883 7.69826 11.8622 7.69826ZM11.8622 9.62287C12.3726 9.62287 12.8621 9.82564 13.2231 10.1866C13.584 10.5475 13.7868 11.037 13.7868 11.5475C13.7868 12.0579 13.584 12.5475 13.2231 12.9084C12.8621 13.2693 12.3726 13.4721 11.8622 13.4721C11.3517 13.4721 10.8622 13.2693 10.5012 12.9084C10.1403 12.5475 9.93754 12.0579 9.93754 11.5475C9.93754 11.037 10.1403 10.5475 10.5012 10.1866C10.8622 9.82564 11.3517 9.62287 11.8622 9.62287ZM16.1925 6.2548C15.9373 6.2548 15.6926 6.35618 15.5121 6.53665C15.3316 6.71712 15.2302 6.96188 15.2302 7.2171C15.2302 7.47232 15.3316 7.71709 15.5121 7.89756C15.6926 8.07803 15.9373 8.17941 16.1925 8.17941C16.4478 8.17941 16.6925 8.07803 16.873 7.89756C17.0535 7.71709 17.1548 7.47232 17.1548 7.2171C17.1548 6.96188 17.0535 6.71712 16.873 6.53665C16.6925 6.35618 16.4478 6.2548 16.1925 6.2548Z" fill="white"/>
</g>
<defs>
<clipPath id="clip0_1_633">
<rect width="23.0954" height="23.0954" fill="white" transform="translate(0.314453)"/>
</clipPath>
</defs>
</svg>
