<svg width="140" height="361" viewBox="0 0 140 361" fill="none" xmlns="http://www.w3.org/2000/svg">
<path d="M188.641 112.749L246.823 15.3639L292.252 44.2629L234.015 141.777L231.43 146.106L236.434 145.495L351.306 131.477L358.883 183.66L244.124 197.665L238.979 198.293L242.707 201.893L325.538 281.896L288.106 320.651L205.275 240.648L201.547 237.048L201.098 242.211L191.094 357.395L138.672 351.627L148.686 236.33L149.122 231.307L144.886 234.041L49.4599 295.636L19.0009 251.238L114.308 189.71L118.537 186.98L113.79 185.306L3.99994 146.588L19.5249 95.7385L129.128 134.404L134.103 136.159L132.265 131.214L91.3929 21.2954L141.716 4L184.222 112.384L186.06 117.071L188.641 112.749Z" stroke="url(#paint0_linear_1_370)" stroke-width="4.9396"/>
<defs>
<linearGradient id="paint0_linear_1_370" x1="53.053" y1="56.1672" x2="308.598" y2="302.99" gradientUnits="userSpaceOnUse">
<stop stop-color="#FFDF99"/>
<stop offset="1" stop-color="#111111" stop-opacity="0"/>
</linearGradient>
</defs>
</svg>
