<svg width="25" height="25" viewBox="0 0 25 25" fill="none" xmlns="http://www.w3.org/2000/svg">
<path d="M20.6392 3.00684H5.3024C4.5506 3.00684 3.94916 3.60828 3.94916 4.2849V19.6969C3.94916 20.3735 4.5506 20.9749 5.3024 20.9749H20.6392C21.391 20.9749 21.9924 20.3735 21.9924 19.6969V4.2849C21.9924 3.60828 21.391 3.00684 20.6392 3.00684ZM9.28696 18.3436H6.65565V9.77306H9.28696V18.3436ZM8.00889 8.57018C7.18191 8.57018 6.43011 7.89355 6.43011 6.99139C6.43011 6.08923 7.10673 5.41261 8.00889 5.41261C8.83588 5.41261 9.58768 6.08923 9.58768 6.99139C9.58768 7.89355 8.83588 8.57018 8.00889 8.57018ZM19.3611 18.2684H16.7298V14.0583C16.7298 13.081 16.7298 11.7277 15.3014 11.7277C13.873 11.7277 13.7226 12.8555 13.7226 13.908V18.1933H11.0913V9.77306H13.5722V10.9008H13.6474C14.0233 10.2241 14.9255 9.47234 16.2035 9.47234C18.91 9.47234 19.4363 11.2767 19.4363 13.6073V18.2684H19.3611Z" fill="white"/>
</svg>
