<svg width="23" height="22" viewBox="0 0 23 22" fill="none" xmlns="http://www.w3.org/2000/svg">
<g clip-path="url(#clip0_1_119)">
<path d="M6.30762 4.40003C6.30762 3.79254 6.80013 3.30003 7.40762 3.30003H21.7076C22.3151 3.30003 22.8076 3.79254 22.8076 4.40003C22.8076 5.00753 22.3151 5.50003 21.7076 5.50003H7.40762C6.80013 5.50003 6.30762 5.00748 6.30762 4.40003ZM21.7076 9.90003H1.90762C1.30013 9.90003 0.807617 10.3926 0.807617 11C0.807617 11.6075 1.30013 12.1 1.90762 12.1H21.7076C22.3151 12.1 22.8076 11.6075 22.8076 11C22.8076 10.3926 22.3151 9.90003 21.7076 9.90003ZM21.7076 16.5H11.8076C11.2002 16.5 10.7076 16.9925 10.7076 17.6C10.7076 18.2075 11.2002 18.7 11.8076 18.7H21.7076C22.3151 18.7 22.8076 18.2075 22.8076 17.6C22.8076 16.9925 22.3151 16.5 21.7076 16.5Z" fill="white"/>
</g>
<defs>
<clipPath id="clip0_1_119">
<rect width="22" height="22" fill="white" transform="translate(0.807617)"/>
</clipPath>
</defs>
</svg>
