<svg width="210" height="72" viewBox="0 0 210 72" fill="none" xmlns="http://www.w3.org/2000/svg">
<path d="M39.9699 22.6178H27.9486V18.8481H39.9699C44.1195 18.8481 47.4833 22.2236 47.4833 26.3874V38.4502H43.7266V26.3874C43.7266 24.3055 42.0447 22.6178 39.9699 22.6178Z" fill="white"/>
<path d="M26.4459 43.7277H38.4672V47.4974H26.4459C22.2964 47.4974 18.9325 44.122 18.9325 39.9581V27.8953H22.6892V39.9581C22.6892 42.0401 24.3711 43.7277 26.4459 43.7277Z" fill="white"/>
<path fill-rule="evenodd" clip-rule="evenodd" d="M40.7212 33.1728C40.7212 37.3366 37.3575 40.7121 33.208 40.7121C29.0584 40.7121 25.6946 37.3366 25.6946 33.1728C25.6946 29.009 29.0584 25.6335 33.208 25.6335C37.3575 25.6335 40.7212 29.009 40.7212 33.1728ZM36.9647 33.1728C36.9647 35.2547 35.2828 36.9424 33.208 36.9424C31.1332 36.9424 29.4513 35.2547 29.4513 33.1728C29.4513 31.0909 31.1332 29.4032 33.208 29.4032C35.2828 29.4032 36.9647 31.0909 36.9647 33.1728Z" fill="white"/>
<path d="M63.5151 45.0965C62.0924 45.0965 60.8117 44.8518 59.6731 44.3621C58.5348 43.8521 57.6403 43.1385 56.99 42.2206C56.3394 41.3027 56.014 40.2317 56.014 39.0077H59.7343C59.8155 39.9257 60.1712 40.6803 60.8016 41.2718C61.4519 41.8636 62.3565 42.1592 63.5151 42.1592C64.7146 42.1592 65.6496 41.8738 66.3206 41.3027C66.9911 40.7109 67.3266 39.9562 67.3266 39.0383C67.3266 38.3243 67.1132 37.743 66.6865 37.2944C66.2796 36.8456 65.7616 36.4989 65.1312 36.2541C64.5215 36.0093 63.6676 35.7442 62.5699 35.4586C61.1878 35.0914 60.0596 34.7243 59.1855 34.3571C58.3316 33.9696 57.5997 33.378 56.99 32.5825C56.3799 31.787 56.0753 30.7263 56.0753 29.4004C56.0753 28.1766 56.3799 27.1057 56.99 26.1878C57.5997 25.2699 58.4536 24.5661 59.5514 24.0766C60.6491 23.587 61.9196 23.3423 63.3629 23.3423C65.416 23.3423 67.0929 23.8624 68.3939 24.9027C69.7151 25.9226 70.4469 27.3301 70.5893 29.1251H66.7473C66.6865 28.3499 66.3206 27.687 65.6496 27.1363C64.9787 26.5855 64.0947 26.3102 62.997 26.3102C62.0007 26.3102 61.1878 26.5651 60.5574 27.0751C59.9274 27.585 59.6122 28.3193 59.6122 29.2781C59.6122 29.9308 59.8053 30.4713 60.1915 30.8997C60.598 31.3076 61.1063 31.634 61.7163 31.8788C62.3261 32.1235 63.1593 32.3887 64.2164 32.6743C65.6192 33.0618 66.7575 33.4494 67.6317 33.8369C68.5261 34.2245 69.2782 34.8262 69.8879 35.6421C70.5183 36.4377 70.8331 37.5086 70.8331 38.8547C70.8331 39.9358 70.5386 40.9559 69.9492 41.9145C69.3797 42.8731 68.5363 43.6482 67.4183 44.24C66.3206 44.8111 65.0196 45.0965 63.5151 45.0965Z" fill="white"/>
<path d="M81.8869 27.7483C83.2085 27.7483 84.3873 28.0237 85.4242 28.5744C86.4809 29.1251 87.3044 29.9411 87.8938 31.0221C88.4833 32.1032 88.7782 33.4087 88.7782 34.9385V44.8824H85.3325V35.4587C85.3325 33.9492 84.9565 32.7968 84.2044 32.0013C83.4523 31.1853 82.4256 30.7774 81.1246 30.7774C79.8237 30.7774 78.7868 31.1853 78.0144 32.0013C77.2624 32.7968 76.8863 33.9492 76.8863 35.4587V44.8824H73.4102V28.0237H76.8863V29.9513C77.4554 29.2577 78.1771 28.7172 79.0513 28.3296C79.9458 27.9421 80.891 27.7483 81.8869 27.7483Z" fill="white"/>
<path d="M90.5288 36.3766C90.5288 34.6835 90.8744 33.1843 91.5657 31.8789C92.2772 30.5734 93.2325 29.5637 94.4317 28.8498C95.6515 28.1155 96.993 27.7483 98.4566 27.7483C99.7782 27.7483 100.927 28.0135 101.902 28.5438C102.899 29.0538 103.691 29.6963 104.281 30.4714V28.0237H107.787V44.8824H104.281V42.3734C103.691 43.1691 102.888 43.8318 101.872 44.3622C100.855 44.8926 99.6967 45.158 98.3957 45.158C96.9524 45.158 95.6312 44.7908 94.4317 44.0565C93.2325 43.3015 92.2772 42.2614 91.5657 40.9356C90.8744 39.5891 90.5288 38.0696 90.5288 36.3766ZM104.281 36.4378C104.281 35.2751 104.037 34.2654 103.549 33.4087C103.081 32.552 102.461 31.8993 101.689 31.4505C100.916 31.0017 100.083 30.7774 99.1884 30.7774C98.2939 30.7774 97.4607 31.0017 96.6883 31.4505C95.9156 31.8789 95.2855 32.5214 94.7976 33.3781C94.3302 34.2144 94.0966 35.2139 94.0966 36.3766C94.0966 37.5393 94.3302 38.5593 94.7976 39.4361C95.2855 40.3133 95.9156 40.9865 96.6883 41.4555C97.481 41.9044 98.3146 42.1287 99.1884 42.1287C100.083 42.1287 100.916 41.9044 101.689 41.4555C102.461 41.0069 103.081 40.354 103.549 39.4975C104.037 38.6203 104.281 37.6005 104.281 36.4378Z" fill="white"/>
<path d="M114.304 30.502C114.894 29.7269 115.697 29.0741 116.713 28.5438C117.73 28.0135 118.878 27.7483 120.159 27.7483C121.622 27.7483 122.954 28.1155 124.153 28.8498C125.373 29.5637 126.328 30.5734 127.02 31.8789C127.71 33.1843 128.056 34.6836 128.056 36.3766C128.056 38.0696 127.71 39.5891 127.02 40.9356C126.328 42.2614 125.373 43.3015 124.153 44.0565C122.954 44.7908 121.622 45.158 120.159 45.158C118.878 45.158 117.74 44.9028 116.744 44.3928C115.748 43.8628 114.935 43.2099 114.304 42.4348V52.8989H110.828V28.0237H114.304V30.502ZM124.519 36.3766C124.519 35.2139 124.275 34.2144 123.787 33.3781C123.32 32.5214 122.69 31.8789 121.897 31.4505C121.124 31.0017 120.291 30.7774 119.396 30.7774C118.522 30.7774 117.689 31.0017 116.896 31.4505C116.124 31.8993 115.494 32.552 115.006 33.4087C114.538 34.2654 114.304 35.2751 114.304 36.4378C114.304 37.6005 114.538 38.6203 115.006 39.4975C115.494 40.354 116.124 41.0069 116.896 41.4555C117.689 41.9044 118.522 42.1287 119.396 42.1287C120.291 42.1287 121.124 41.9044 121.897 41.4555C122.69 40.9865 123.32 40.3133 123.787 39.4361C124.275 38.5593 124.519 37.5393 124.519 36.3766Z" fill="white"/>
<path d="M136.952 45.0965C135.529 45.0965 134.248 44.8518 133.11 44.3621C131.971 43.8521 131.077 43.1385 130.427 42.2206C129.776 41.3027 129.451 40.2317 129.451 39.0077H133.171C133.252 39.9257 133.608 40.6803 134.238 41.2718C134.888 41.8636 135.793 42.1592 136.952 42.1592C138.151 42.1592 139.086 41.8738 139.757 41.3027C140.428 40.7109 140.763 39.9562 140.763 39.0383C140.763 38.3243 140.55 37.743 140.123 37.2944C139.716 36.8456 139.198 36.4989 138.568 36.2541C137.958 36.0093 137.104 35.7442 136.006 35.4586C134.624 35.0914 133.496 34.7243 132.622 34.3571C131.768 33.9696 131.036 33.378 130.427 32.5825C129.816 31.787 129.512 30.7263 129.512 29.4004C129.512 28.1766 129.816 27.1057 130.427 26.1878C131.036 25.2699 131.89 24.5661 132.988 24.0766C134.086 23.587 135.356 23.3423 136.799 23.3423C138.852 23.3423 140.529 23.8624 141.83 24.9027C143.152 25.9226 143.883 27.3301 144.026 29.1251H140.184C140.123 28.3499 139.757 27.687 139.086 27.1363C138.415 26.5855 137.531 26.3102 136.433 26.3102C135.437 26.3102 134.624 26.5651 133.994 27.0751C133.364 27.585 133.049 28.3193 133.049 29.2781C133.049 29.9308 133.242 30.4713 133.628 30.8997C134.034 31.3076 134.543 31.634 135.152 31.8788C135.763 32.1235 136.596 32.3887 137.653 32.6743C139.056 33.0618 140.194 33.4494 141.068 33.8369C141.963 34.2245 142.715 34.8262 143.324 35.6421C143.955 36.4377 144.27 37.5086 144.27 38.8547C144.27 39.9358 143.975 40.9559 143.385 41.9145C142.816 42.8731 141.973 43.6482 140.855 44.24C139.757 44.8111 138.456 45.0965 136.952 45.0965Z" fill="white"/>
<path d="M155.537 27.7481C156.817 27.7481 157.956 28.0235 158.952 28.5742C159.969 29.125 160.761 29.9409 161.33 31.022C161.92 32.1031 162.215 33.4085 162.215 34.9384V44.8823H158.769V35.4585C158.769 33.9491 158.393 32.7966 157.641 32.0011C156.889 31.1852 155.862 30.7772 154.561 30.7772C153.26 30.7772 152.223 31.1852 151.451 32.0011C150.699 32.7966 150.323 33.9491 150.323 35.4585V44.8823H146.847V22.2407H150.323V29.9817C150.912 29.2678 151.654 28.717 152.549 28.3295C153.463 27.9419 154.46 27.7481 155.537 27.7481Z" fill="white"/>
<path d="M172.412 45.158C170.826 45.158 169.393 44.801 168.112 44.0871C166.832 43.3527 165.825 42.3327 165.093 41.0272C164.362 39.7015 163.996 38.1717 163.996 36.4378C163.996 34.7244 164.372 33.2047 165.124 31.8789C165.876 30.553 166.903 29.5331 168.204 28.8192C169.505 28.1053 170.958 27.7483 172.564 27.7483C174.17 27.7483 175.623 28.1053 176.924 28.8192C178.225 29.5331 179.252 30.553 180.004 31.8789C180.756 33.2047 181.132 34.7244 181.132 36.4378C181.132 38.151 180.746 39.6709 179.973 40.9967C179.201 42.3225 178.144 43.3527 176.802 44.0871C175.481 44.801 174.018 45.158 172.412 45.158ZM172.412 42.1287C173.306 42.1287 174.139 41.9146 174.912 41.4864C175.705 41.0578 176.345 40.4154 176.833 39.5586C177.321 38.7018 177.565 37.6616 177.565 36.4378C177.565 35.2139 177.331 34.1838 176.863 33.3475C176.396 32.4908 175.776 31.8483 175.003 31.4199C174.231 30.9916 173.397 30.7774 172.503 30.7774C171.609 30.7774 170.775 30.9916 170.003 31.4199C169.251 31.8483 168.651 32.4908 168.204 33.3475C167.757 34.1838 167.533 35.2139 167.533 36.4378C167.533 38.2532 167.99 39.6607 168.905 40.6601C169.84 41.6391 171.009 42.1287 172.412 42.1287Z" fill="white"/>
<path d="M187.099 30.8691V40.2012C187.099 40.8334 187.242 41.2925 187.526 41.5779C187.831 41.8432 188.339 41.9756 189.051 41.9756H191.185V44.8823H188.441C186.876 44.8823 185.676 44.5152 184.843 43.7808C184.01 43.0465 183.593 41.8534 183.593 40.2012V30.8691H181.611V28.0235H183.593V23.8318H187.099V28.0235H191.185V30.8691H187.099Z" fill="white"/>
</svg>
