<svg width="196" height="70" viewBox="0 0 196 70" fill="none" xmlns="http://www.w3.org/2000/svg">
<path d="M147.602 20.2139V49.4117H151.889V20.2139H147.602Z" fill="white"/>
<path fill-rule="evenodd" clip-rule="evenodd" d="M108.843 49.8831C107.152 49.8831 105.739 49.4904 104.604 48.7047C104.48 48.619 104.36 48.5295 104.242 48.4367V49.4118H100.46V20.6853H104.778V32.9917C105.837 32.3127 107.119 31.9732 108.623 31.9732C110.251 31.9732 111.669 32.3607 112.878 33.1358C114.086 33.9108 115.021 34.9739 115.682 36.325C116.355 37.6657 116.691 39.2001 116.691 40.928C116.691 42.6248 116.36 44.1487 115.698 45.5001C115.047 46.851 114.133 47.9194 112.956 48.7047C111.78 49.4904 110.409 49.8831 108.843 49.8831ZM104.62 38.2261C104.368 39.0009 104.242 39.9016 104.242 40.928C104.242 41.9544 104.368 42.8554 104.62 43.6303C104.872 44.4055 105.282 45.0075 105.849 45.4372C106.427 45.8665 107.194 46.081 108.15 46.081C109.074 46.081 109.831 45.8508 110.419 45.39C111.008 44.9292 111.444 44.3112 111.727 43.536C112.011 42.7506 112.153 41.8814 112.153 40.928C112.153 39.9854 112.006 39.1267 111.711 38.3518C111.417 37.5661 110.96 36.9429 110.341 36.4821C109.731 36.0108 108.948 35.7751 107.992 35.7751C107.099 35.7751 106.374 35.9898 105.818 36.4193C105.272 36.8487 104.872 37.4508 104.62 38.2261Z" fill="white"/>
<path d="M93.6831 39.3882V49.4117H97.9692V38.2574C97.9692 36.4034 97.4702 34.9057 96.4722 33.764C95.4847 32.6119 94.0192 32.0359 92.0757 32.0359C90.941 32.0359 89.9062 32.2873 88.9712 32.79C88.1151 33.2458 87.4167 33.8722 86.876 34.6693C86.4728 33.9459 85.9156 33.3509 85.2048 32.8842C84.354 32.3187 83.2613 32.0359 81.9272 32.0359C80.761 32.0359 79.7052 32.2925 78.7597 32.8057C78.0452 33.1979 77.441 33.6971 76.9473 34.3033V32.4444H73.1654V49.4117H77.4831V39.137C77.4831 38.163 77.7512 37.3722 78.287 36.7647C78.8333 36.1468 79.5527 35.8378 80.4456 35.8378C81.3809 35.8378 82.1108 36.152 82.6361 36.7805C83.172 37.3984 83.44 38.2678 83.44 39.3882V49.4117H87.7261V39.137C87.7261 38.4876 87.847 37.9167 88.0888 37.4246C88.3408 36.9219 88.6874 36.5343 89.1289 36.262C89.5701 35.9792 90.0902 35.8378 90.689 35.8378C91.624 35.8378 92.3539 36.152 92.8792 36.7805C93.415 37.3984 93.6831 38.2678 93.6831 39.3882Z" fill="white"/>
<path d="M57.8087 49.2387C58.649 49.689 59.7364 49.9144 61.0709 49.9144C62.741 49.9144 64.1228 49.5532 65.2154 48.8303C65.734 48.4908 66.1909 48.1011 66.5863 47.662V49.4117H70.3685V32.4443H66.0505V41.0536C66.0505 42.101 65.9296 42.9492 65.6882 43.5987C65.4569 44.2377 65.1576 44.7247 64.7896 45.0597C64.422 45.3846 64.0282 45.6043 63.608 45.7196C63.1878 45.8349 62.7936 45.8926 62.426 45.8926C61.5121 45.8926 60.8028 45.6882 60.2985 45.2798C59.8048 44.8714 59.4477 44.3634 59.2269 43.7559C59.0065 43.1483 58.8751 42.546 58.833 41.949C58.791 41.3418 58.77 40.8443 58.77 40.4565V32.4443H54.4208V41.9647C54.4208 42.2477 54.4414 42.698 54.4835 43.316C54.5255 43.9341 54.6464 44.6198 54.8462 45.3741C55.0456 46.1175 55.3767 46.8351 55.839 47.5265C56.3117 48.2175 56.9684 48.7884 57.8087 49.2387Z" fill="white"/>
<path d="M118.583 32.4445V49.4118H122.901V40.7397C122.901 40.0902 122.99 39.5089 123.169 38.9957C123.347 38.472 123.61 38.0217 123.956 37.6447C124.303 37.2571 124.729 36.9482 125.233 36.7178C125.737 36.4769 126.299 36.3355 126.919 36.2936C127.549 36.2412 128.101 36.2883 128.574 36.435V32.4445C128.059 32.3817 127.544 32.3712 127.029 32.4131C126.515 32.4445 126.016 32.5335 125.532 32.6801C125.049 32.8163 124.603 33.0101 124.193 33.2614C123.657 33.5757 123.206 33.9736 122.838 34.4554C122.664 34.6835 122.506 34.9233 122.365 35.1749V32.4445H118.583Z" fill="white"/>
<path fill-rule="evenodd" clip-rule="evenodd" d="M137.599 49.8831C135.855 49.8831 134.316 49.5114 132.982 48.7676C131.658 48.0137 130.617 46.982 129.861 45.6726C129.115 44.3531 128.742 42.8449 128.742 41.148C128.742 39.2944 129.11 37.6814 129.845 36.3092C130.581 34.9372 131.594 33.8741 132.887 33.12C134.179 32.3554 135.666 31.9731 137.346 31.9731C139.133 31.9731 140.651 32.3921 141.901 33.23C143.151 34.0679 144.075 35.2461 144.674 36.7648C145.273 38.2837 145.483 40.0692 145.305 42.1221H133.354C133.488 43.1406 133.805 43.9679 134.305 44.6042C134.999 45.4633 136.012 45.8927 137.346 45.8927C138.187 45.8927 138.907 45.7093 139.505 45.3428C140.104 44.9763 140.561 44.4474 140.876 43.756L145.163 44.9816C144.522 46.5317 143.508 47.7359 142.121 48.5946C140.745 49.4537 139.238 49.8831 137.599 49.8831ZM140.23 36.8277C140.597 37.3238 140.843 38.031 140.968 38.9485H133.467C133.634 38.165 133.913 37.5208 134.305 37.0162C134.999 36.1259 136.075 35.6808 137.536 35.6808C138.786 35.6808 139.684 36.0631 140.23 36.8277Z" fill="white"/>
<path d="M155.352 49.4117V20.2139H159.639V49.4117H155.352Z" fill="white"/>
<path fill-rule="evenodd" clip-rule="evenodd" d="M164.41 49.1917C165.262 49.6525 166.296 49.8831 167.515 49.8831C168.986 49.8831 170.199 49.6315 171.155 49.1288C171.917 48.7241 172.637 48.1245 173.314 47.329V49.4118H177.065V39.0428C177.065 38.2679 177.033 37.5661 176.97 36.9377C176.907 36.3093 176.707 35.6808 176.371 35.0524C175.772 33.9212 174.89 33.1253 173.724 32.6644C172.558 32.2036 171.224 31.9731 169.721 31.9731C167.673 31.9731 166.055 32.4131 164.867 33.2928C163.681 34.1726 162.871 35.3142 162.441 36.7177L166.317 37.943C166.59 37.1681 167.068 36.6287 167.751 36.325C168.434 36.0212 169.091 35.8693 169.721 35.8693C170.856 35.8693 171.665 36.105 172.148 36.5763C172.528 36.9464 172.758 37.4811 172.84 38.1807C172.114 38.2904 171.426 38.3945 170.777 38.4929C169.674 38.6501 168.686 38.8178 167.815 38.9956C166.942 39.1738 166.191 39.3782 165.561 39.6084C164.647 39.9434 163.917 40.3627 163.37 40.8654C162.835 41.3577 162.446 41.9282 162.204 42.5776C161.963 43.2271 161.842 43.9447 161.842 44.73C161.842 45.6726 162.057 46.5366 162.488 47.3223C162.929 48.0971 163.57 48.7204 164.41 49.1917ZM170.415 46.1124C169.879 46.3849 169.217 46.5212 168.429 46.5212C167.935 46.5212 167.51 46.4478 167.153 46.3011C166.795 46.1544 166.517 45.9451 166.317 45.6726C166.128 45.39 166.034 45.0546 166.034 44.6671C166.034 44.3845 166.091 44.1277 166.207 43.8975C166.333 43.6669 166.522 43.4577 166.774 43.269C167.037 43.0699 167.378 42.8868 167.799 42.7191C168.166 42.5829 168.592 42.4571 169.075 42.3422C169.558 42.2269 170.194 42.1011 170.982 41.9648C171.488 41.8709 172.094 41.7634 172.8 41.6433C172.79 41.942 172.772 42.2797 172.747 42.6562C172.715 43.2638 172.589 43.7979 172.369 44.2587C172.253 44.4994 172.032 44.7982 171.707 45.1541C171.392 45.5101 170.961 45.8298 170.415 46.1124Z" fill="white"/>
<path fill-rule="evenodd" clip-rule="evenodd" d="M30.7658 32.5671H19.126V37.6205C19.126 45.1663 25.2619 51.2836 32.831 51.2836C40.4 51.2836 46.5361 45.1663 46.5361 37.6205V32.5671H34.5206V24.5189C34.5206 21.3145 31.9149 18.7168 28.7007 18.7168C25.4864 18.7168 22.8808 21.3145 22.8808 24.5189H26.6356C26.6356 23.3819 27.5602 22.4601 28.7007 22.4601C29.8412 22.4601 30.7658 23.3819 30.7658 24.5189V32.5671ZM30.7658 36.3104V43.4227H34.5206V36.3104H42.7813V37.6205C42.7813 43.0993 38.3263 47.5403 32.831 47.5403C27.3356 47.5403 22.8808 43.0993 22.8808 37.6205V36.3104H30.7658Z" fill="white"/>
</svg>
