<svg width="69" height="69" viewBox="0 0 69 69" fill="none" xmlns="http://www.w3.org/2000/svg">
<g clip-path="url(#clip0_1_662)">
<path d="M34.5086 0H34.4914C15.4689 0 0 15.4732 0 34.5C0 42.0469 2.43225 49.0418 6.56794 54.7213L2.26838 67.5381L15.5293 63.2989C20.9846 66.9128 27.4922 69 34.5086 69C53.5311 69 69 53.5224 69 34.5C69 15.4776 53.5311 0 34.5086 0Z" fill="#4CAF50"/>
<path d="M54.5834 48.7182C53.7511 51.0685 50.4477 53.0177 47.8128 53.587C46.0101 53.9708 43.6555 54.277 35.7291 50.9909C25.5904 46.7905 19.0613 36.4879 18.5524 35.8195C18.0651 35.151 14.4556 30.3642 14.4556 25.4134C14.4556 20.4627 16.9698 18.052 17.9832 17.017C18.8155 16.1674 20.1912 15.7793 21.5108 15.7793C21.9378 15.7793 22.3216 15.8009 22.6666 15.8181C23.68 15.8612 24.1889 15.9216 24.8573 17.5215C25.6896 19.5269 27.7165 24.4776 27.958 24.9865C28.2038 25.4954 28.4496 26.1854 28.1046 26.8538C27.7812 27.5438 27.4966 27.85 26.9877 28.4365C26.4788 29.023 25.9958 29.4715 25.4869 30.1011C25.0212 30.6488 24.4951 31.2353 25.0816 32.2487C25.6681 33.2406 27.6949 36.5483 30.6792 39.2048C34.5303 42.6332 37.6525 43.7286 38.7694 44.1944C39.6018 44.5394 40.5936 44.4574 41.2017 43.8105C41.9736 42.9782 42.9267 41.5982 43.897 40.2398C44.587 39.2652 45.4581 39.1444 46.3724 39.4894C47.3039 39.8129 52.2331 42.2494 53.2465 42.754C54.2599 43.2629 54.9284 43.5044 55.1742 43.9313C55.4157 44.3582 55.4157 46.3635 54.5834 48.7182Z" fill="#FAFAFA"/>
</g>
<defs>
<clipPath id="clip0_1_662">
<rect width="69" height="69" fill="white"/>
</clipPath>
</defs>
</svg>
