<svg width="62" height="61" viewBox="0 0 62 61" fill="none" xmlns="http://www.w3.org/2000/svg">
<path fill-rule="evenodd" clip-rule="evenodd" d="M56.2556 51.7918V22.901C56.2556 20.6233 54.3376 18.7052 51.94 18.7052H47.2647V19.904H51.94C53.6183 19.904 55.0569 21.3426 55.0569 22.901V49.7539C55.0569 50.2334 54.6972 50.593 54.0978 50.593H7.22515C6.74564 50.593 6.386 50.2334 6.386 49.7539V22.901C6.386 21.3426 7.70467 19.904 9.38297 19.904H13.6986V18.8251H9.38297C7.10527 18.8251 5.18721 20.7432 5.18721 23.0209V51.7918H56.2556ZM42.5894 35.3684H18.4938C17.295 35.3684 17.295 33.6901 18.4938 33.6901H42.4696C43.6684 33.6901 43.6684 35.3684 42.5894 35.3684ZM42.5894 31.0528H18.4938C17.295 31.0528 17.295 29.2546 18.4938 29.2546H42.4696C43.6684 29.2546 43.6684 31.0528 42.5894 31.0528ZM42.5894 26.7371H18.4938C17.295 26.7371 17.295 24.939 18.4938 24.939H42.4696C43.6684 24.939 43.6684 26.7371 42.5894 26.7371ZM42.5894 22.3016H18.4938C17.295 22.3016 17.295 20.5034 18.4938 20.5034H42.4696C43.6684 20.5034 43.6684 22.3016 42.5894 22.3016ZM42.5894 17.986H18.4938C17.295 17.986 17.295 16.1878 18.4938 16.1878H42.4696C43.6684 16.1878 43.6684 17.986 42.5894 17.986ZM42.5894 13.5505H18.4938C17.295 13.5505 17.295 11.7523 18.4938 11.7523H42.4696C43.6684 11.7523 43.6684 13.5505 42.5894 13.5505ZM39.8322 11.033C38.6334 11.033 38.6334 9.23481 39.8322 9.23481C40.072 9.23481 40.6714 8.27578 40.7913 6.59747H36.3557C35.9961 11.3926 32.6395 11.7523 32.6395 10.074C32.6395 9.59445 33.119 9.23481 33.5985 9.23481C33.8383 9.23481 34.4377 8.27578 34.5576 6.59747H30.122C29.8823 11.5125 26.5257 11.7523 26.5257 10.074C26.5257 9.59445 27.0052 9.23481 27.4847 9.23481C27.7245 9.11493 28.3238 8.27578 28.4437 6.59747H24.0082C23.6486 11.5125 20.292 11.7523 20.292 10.074C20.292 9.59445 20.7715 9.23481 21.251 9.23481C21.4907 9.23481 22.0901 8.27578 22.21 6.59747H16.5757C15.9763 6.59747 15.3769 7.19687 15.3769 7.67638V39.5642C15.3769 40.1636 15.9763 40.6431 16.5757 40.6431H44.5075C45.1069 40.6431 45.5864 40.1636 45.5864 39.5642V7.67638C45.5864 6.35772 43.6684 6.59747 42.5894 6.59747C42.3497 9.23481 41.2708 11.033 39.8322 11.033ZM40.7913 4.91917C40.6714 3.12099 40.072 2.16195 39.8322 2.16195C39.5925 2.16195 38.9931 3.12099 38.7533 4.91917H40.7913ZM37.075 4.91917C37.5545 -0.954899 42.1099 -1.07478 42.5894 4.91917H44.5075C46.0659 4.91917 47.2647 6.11796 47.2647 7.67638V16.9071H51.94C55.2966 16.9071 58.0538 19.6643 58.0538 22.901V51.7918H60.5713C61.0508 51.7918 61.4104 52.2713 61.4104 52.7509V55.8677C61.4104 58.1454 59.4924 60.0635 57.3345 60.0635H4.1083C1.8306 60.0635 0.0324172 58.1454 0.0324172 55.8677C0.0324172 51.3123 -0.566978 51.7918 3.38903 51.7918V22.901C3.38903 19.6643 6.14624 17.0269 9.38297 17.0269H13.6986V7.67638C13.6986 6.11796 15.0173 4.91917 16.5757 4.91917H18.3739C18.8534 -1.07478 23.5287 -1.07478 24.0082 4.91917H24.6076C24.7275 2.52159 25.6865 0.36377 27.3648 0.36377C29.0431 0.36377 29.8823 2.64147 30.122 4.91917H30.7214C31.2009 -1.07478 35.8762 -1.07478 36.3557 4.91917H37.075ZM34.5576 4.91917C34.4377 3.12099 33.8383 2.16195 33.5985 2.16195C33.3588 2.16195 32.7594 3.12099 32.5196 4.91917H34.5576ZM28.4437 4.91917C28.3238 3.12099 27.7245 2.16195 27.3648 2.16195C27.2449 2.16195 26.5257 3.12099 26.4058 4.91917H28.4437ZM22.21 4.91917C22.0901 3.12099 21.4907 2.16195 21.251 2.16195C21.0112 2.16195 20.4118 3.12099 20.1721 4.91917H22.21ZM44.5075 42.4413H16.5757C15.0173 42.4413 13.6986 41.1226 13.6986 39.5642V21.7022H9.38297C8.78358 21.7022 8.06431 22.3016 8.06431 23.0209V48.9147H53.2587V23.0209C53.2587 22.3016 52.6593 21.7022 51.94 21.7022H47.2647V39.5642C47.3846 41.1226 46.0659 42.4413 44.5075 42.4413ZM47.3846 56.8267C46.5454 56.8267 44.8671 57.0665 44.8671 55.8677C44.8671 54.7888 46.5454 55.0286 47.3846 55.0286C48.5834 55.0286 48.5834 56.8267 47.3846 56.8267ZM51.8201 56.8267C50.981 56.8267 49.3027 57.0665 49.3027 55.8677C49.3027 54.7888 50.981 55.0286 51.8201 55.0286C53.0189 55.0286 53.0189 56.8267 51.8201 56.8267ZM56.2556 56.8267C55.4165 56.8267 53.7382 57.0665 53.7382 55.8677C53.7382 54.7888 55.4165 55.0286 56.2556 55.0286C57.4544 55.0286 57.4544 56.8267 56.2556 56.8267ZM17.6546 56.8267H6.26612C5.18721 56.8267 5.18721 55.0286 6.26612 55.0286H17.6546C18.7335 55.0286 18.7335 56.8267 17.6546 56.8267ZM35.6365 56.8267H25.8064C24.4877 56.8267 23.4088 55.7478 23.4088 54.4292V53.59H1.71072V55.9876C1.71072 57.3063 2.78963 58.2653 4.1083 58.2653H57.3345C58.6532 58.2653 59.7321 57.3063 59.7321 55.9876V53.59H38.1539V54.4292C38.034 55.7478 36.9551 56.8267 35.6365 56.8267ZM25.207 53.59C25.207 54.1894 25.0871 55.0286 25.9263 55.0286H35.6365C36.4756 55.0286 36.3557 54.1894 36.3557 53.59H25.207Z" fill="#FBAD1C"/>
</svg>
