<svg width="21" height="18" viewBox="0 0 21 18" fill="none" xmlns="http://www.w3.org/2000/svg">
<path d="M20.2418 2.77422C19.5009 3.11103 18.7021 3.33236 17.8745 3.43822C18.7214 2.92819 19.3758 2.11986 19.6837 1.14792C18.885 1.62908 17.9997 1.96589 17.0662 2.15835C16.306 1.33076 15.2378 0.849609 14.0253 0.849609C11.7639 0.849609 9.91627 2.69724 9.91627 4.97791C9.91627 5.30509 9.95476 5.62266 10.0221 5.92097C6.59631 5.74776 3.54579 4.10221 1.51532 1.60983C1.15927 2.21609 0.957182 2.92819 0.957182 3.67879C0.957182 5.11263 1.67891 6.38288 2.79519 7.10461C2.11195 7.10461 1.47683 6.91215 0.91869 6.62346V6.65232C0.91869 8.65392 2.34291 10.3283 4.22903 10.7036C3.62347 10.8694 2.98774 10.8924 2.37177 10.771C2.63314 11.5914 3.14502 12.3092 3.83546 12.8235C4.5259 13.3379 5.36017 13.623 6.22101 13.6387C4.76179 14.7939 2.953 15.4183 1.09191 15.4093C0.764721 15.4093 0.437536 15.3901 0.110352 15.3516C1.93874 16.5256 4.11355 17.2088 6.44234 17.2088C14.0253 17.2088 18.1921 10.9153 18.1921 5.45906C18.1921 5.27623 18.1921 5.10301 18.1825 4.92017C18.9908 4.34279 19.6837 3.61143 20.2418 2.77422Z" fill="white"/>
</svg>
